<mxfile host="app.diagrams.net" modified="2020-07-10T19:33:50.694Z" agent="5.0 (Macintosh; Intel Mac OS X 10_14_6) AppleWebKit/605.1.15 (KHTML, like Gecko) Version/12.1.2 Safari/605.1.15" etag="8dylUYUeLjzjM2xQAK9t" version="13.4.2" type="github">
  <diagram name="Page-1" id="e3a06f82-3646-2815-327d-82caf3d4e204">
    <mxGraphModel dx="873" dy="531" grid="1" gridSize="10" guides="1" tooltips="1" connect="1" arrows="1" fold="1" page="1" pageScale="1.5" pageWidth="1169" pageHeight="826" background="none" math="0" shadow="0">
      <root>
        <mxCell id="0" style=";html=1;" />
        <mxCell id="1" style=";html=1;" parent="0" />
        <mxCell id="jQksy3Ow2DRkKl9in1qA-1" value="Redis" style="verticalLabelPosition=bottom;aspect=fixed;html=1;verticalAlign=top;strokeColor=none;align=center;outlineConnect=0;shape=mxgraph.citrix.database;" vertex="1" parent="1">
          <mxGeometry x="210" y="70" width="42.5" height="50" as="geometry" />
        </mxCell>
        <mxCell id="jQksy3Ow2DRkKl9in1qA-2" value="db.media.ccc.de" style="verticalLabelPosition=bottom;aspect=fixed;html=1;verticalAlign=top;strokeColor=none;align=center;outlineConnect=0;shape=mxgraph.citrix.database_server;" vertex="1" parent="1">
          <mxGeometry x="820" y="290" width="70" height="78.75" as="geometry" />
        </mxCell>
        <mxCell id="jQksy3Ow2DRkKl9in1qA-3" value="koeln.media.ccc.de" style="verticalLabelPosition=bottom;aspect=fixed;html=1;verticalAlign=top;strokeColor=none;align=center;outlineConnect=0;shape=mxgraph.citrix.file_server;" vertex="1" parent="1">
          <mxGeometry x="90" y="70" width="71" height="97" as="geometry" />
        </mxCell>
        <mxCell id="jQksy3Ow2DRkKl9in1qA-4" value="" style="verticalLabelPosition=bottom;aspect=fixed;html=1;verticalAlign=top;strokeColor=none;align=center;outlineConnect=0;shape=mxgraph.citrix.license_server;" vertex="1" parent="1">
          <mxGeometry x="170" y="340" width="65" height="85" as="geometry" />
        </mxCell>
        <mxCell id="jQksy3Ow2DRkKl9in1qA-5" value="app.media.ccc.de" style="verticalLabelPosition=bottom;aspect=fixed;html=1;verticalAlign=top;strokeColor=none;align=center;outlineConnect=0;shape=mxgraph.citrix.web_server;" vertex="1" parent="1">
          <mxGeometry x="820" y="130" width="66.5" height="78.24" as="geometry" />
        </mxCell>
        <mxCell id="jQksy3Ow2DRkKl9in1qA-7" value="" style="rounded=0;whiteSpace=wrap;html=1;" vertex="1" parent="1">
          <mxGeometry x="910" y="139.12" width="120" height="60" as="geometry" />
        </mxCell>
      </root>
    </mxGraphModel>
  </diagram>
</mxfile>
